<svg width="20" height="22" viewBox="0 0 20 22" fill="none" xmlns="http://www.w3.org/2000/svg">
<path d="M18.0829 14.2001L19.2849 14.9211C19.359 14.9655 19.4204 15.0283 19.463 15.1035C19.5056 15.1787 19.528 15.2636 19.528 15.3501C19.528 15.4365 19.5056 15.5214 19.463 15.5966C19.4204 15.6718 19.359 15.7347 19.2849 15.7791L10.5149 21.0411C10.3593 21.1345 10.1813 21.1839 9.99986 21.1839C9.81841 21.1839 9.64039 21.1345 9.48485 21.0411L0.714855 15.7791C0.640701 15.7347 0.57932 15.6718 0.536701 15.5966C0.494082 15.5214 0.47168 15.4365 0.47168 15.3501C0.47168 15.2636 0.494082 15.1787 0.536701 15.1035C0.57932 15.0283 0.640701 14.9655 0.714855 14.9211L1.91685 14.2001L9.99986 19.0501L18.0829 14.2001ZM18.0829 9.50007L19.2849 10.2211C19.359 10.2655 19.4204 10.3283 19.463 10.4035C19.5056 10.4787 19.528 10.5636 19.528 10.6501C19.528 10.7365 19.5056 10.8214 19.463 10.8966C19.4204 10.9718 19.359 11.0347 19.2849 11.0791L9.99986 16.6501L0.714855 11.0791C0.640701 11.0347 0.57932 10.9718 0.536701 10.8966C0.494082 10.8214 0.47168 10.7365 0.47168 10.6501C0.47168 10.5636 0.494082 10.4787 0.536701 10.4035C0.57932 10.3283 0.640701 10.2655 0.714855 10.2211L1.91685 9.50007L9.99986 14.3501L18.0829 9.50007ZM10.5139 0.30907L19.2849 5.57107C19.359 5.61546 19.4204 5.67832 19.463 5.75351C19.5056 5.82869 19.528 5.91364 19.528 6.00007C19.528 6.0865 19.5056 6.17145 19.463 6.24663C19.4204 6.32182 19.359 6.38468 19.2849 6.42907L9.99986 12.0001L0.714855 6.42907C0.640701 6.38468 0.57932 6.32182 0.536701 6.24663C0.494082 6.17145 0.47168 6.0865 0.47168 6.00007C0.47168 5.91364 0.494082 5.82869 0.536701 5.75351C0.57932 5.67832 0.640701 5.61546 0.714855 5.57107L9.48485 0.30907C9.64039 0.215626 9.81841 0.16626 9.99986 0.16626C10.1813 0.16626 10.3593 0.215626 10.5149 0.30907H10.5139ZM9.99986 2.33207L3.88685 6.00007L9.99986 9.66807L16.1129 6.00007L9.99986 2.33207Z" fill="#03053D"/>
</svg>
