<svg width="18" height="22" viewBox="0 0 18 22" fill="none" xmlns="http://www.w3.org/2000/svg">
<path d="M9 21.728L2.636 15.364C1.37734 14.1053 0.520187 12.5017 0.172928 10.7558C-0.17433 9.01002 0.00390685 7.20043 0.685099 5.5559C1.36629 3.91137 2.51984 2.50577 3.99988 1.51684C5.47992 0.527914 7.21998 7.62939e-05 9 7.62939e-05C10.78 7.62939e-05 12.5201 0.527914 14.0001 1.51684C15.4802 2.50577 16.6337 3.91137 17.3149 5.5559C17.9961 7.20043 18.1743 9.01002 17.8271 10.7558C17.4798 12.5017 16.6227 14.1053 15.364 15.364L9 21.728ZM13.95 13.95C14.9289 12.971 15.5955 11.7237 15.8656 10.3659C16.1356 9.00803 15.9969 7.6006 15.4671 6.32155C14.9373 5.04251 14.04 3.9493 12.8889 3.18017C11.7378 2.41103 10.3844 2.0005 9 2.0005C7.61557 2.0005 6.26222 2.41103 5.11109 3.18017C3.95996 3.9493 3.06275 5.04251 2.53292 6.32155C2.00308 7.6006 1.86442 9.00803 2.13445 10.3659C2.40449 11.7237 3.07111 12.971 4.05 13.95L9 18.9L13.95 13.95ZM9 11C8.46957 11 7.96086 10.7893 7.58579 10.4142C7.21072 10.0391 7 9.53043 7 9C7 8.46957 7.21072 7.96086 7.58579 7.58578C7.96086 7.21071 8.46957 7 9 7C9.53044 7 10.0391 7.21071 10.4142 7.58578C10.7893 7.96086 11 8.46957 11 9C11 9.53043 10.7893 10.0391 10.4142 10.4142C10.0391 10.7893 9.53044 11 9 11Z" fill="#03053D"/>
</svg>
