<svg width="22" height="21" viewBox="0 0 22 21" fill="none" xmlns="http://www.w3.org/2000/svg">
<path d="M9.89985 0.100098L19.7988 1.5151L21.2128 11.4151L12.0208 20.6071C11.8333 20.7946 11.579 20.8999 11.3138 20.8999C11.0487 20.8999 10.7944 20.7946 10.6068 20.6071L0.706849 10.7071C0.519378 10.5196 0.414063 10.2653 0.414062 10.0001C0.414063 9.73493 0.519378 9.48063 0.706849 9.2931L9.89985 0.100098ZM10.6068 2.2221L2.82785 10.0001L11.3138 18.4851L19.0918 10.7071L18.0318 3.2821L10.6068 2.2221ZM12.7268 8.5861C12.3517 8.21082 12.141 7.70188 12.1411 7.17124C12.1411 6.9085 12.1929 6.64834 12.2935 6.40561C12.3941 6.16289 12.5415 5.94235 12.7273 5.7566C12.9132 5.57084 13.1338 5.42351 13.3765 5.323C13.6193 5.2225 13.8795 5.17079 14.1422 5.17084C14.6728 5.17093 15.1817 5.38182 15.5568 5.7571C15.932 6.13238 16.1427 6.64132 16.1426 7.17195C16.1425 7.70259 15.9316 8.21145 15.5563 8.5866C15.1811 8.96175 14.6721 9.17245 14.1415 9.17236C13.6109 9.17226 13.102 8.96138 12.7268 8.5861Z" fill="#03053D"/>
</svg>
